<svg id="Layer_1" data-name="Layer 1" xmlns="http://www.w3.org/2000/svg" viewBox="0 0 100 58"><title>logoArtboard 2</title><path d="M63.09,38.85c.33-.87.67-1.74,1-2.61s.42-1.48.75-2.17a17,17,0,0,0,1.11-5.27c.13-1,.28-2,.48-3.05.45-2.26.87-4.53,1.43-6.76.5-2,1.14-3.92,1.76-5.86.16-.51.46-1,1.14-.91a1,1,0,0,1,.92,1.11,15.41,15.41,0,0,1-.15,3.73,61.76,61.76,0,0,1-2.59,8.83,22.08,22.08,0,0,0-1.52,7.7A5.69,5.69,0,0,0,68,35.91a.74.74,0,0,0,1.26.25c1-.87,2.11-1.73,3.06-2.69a6.83,6.83,0,0,0,1-1.76,1.57,1.57,0,0,1,1.6-1,1.88,1.88,0,0,0,.9-.36,22.63,22.63,0,0,1,2.52-1.64c2.53-1.17,5.13-2.21,7.68-3.36,1.24-.55,2.41-1.23,3.63-1.81.47-.22,1-.28,1.48-.48s1.19-.62,1.82-.84c.28-.1.64.05,1,.08-.16.26-.25.63-.48.76-1.91,1.06-3.82,2.12-5.77,3.1-2.53,1.26-5.09,2.43-7.64,3.65-.26.13-.52.26-.76.41-1.31.81-1.2.78-.78,2.22A4.85,4.85,0,0,1,76.3,38a3.1,3.1,0,0,1-3.48-1.48l-.34-.83a6.41,6.41,0,0,0-.83.71A3.69,3.69,0,0,1,68.31,38c-1.28-.12-1.84-1-2.55-2.18-.27.58-.49,1-.65,1.4-.42,1.16-.83,2.33-1.23,3.49-.13.36-.24.73-.36,1.1-.46,1.41-1,2.81-1.37,4.24-.3,1.1-.43,2.25-.67,3.38-.18.85-.39,1.69-.61,2.52-.17.66-.69.78-1.25.67S58.92,52,59,51.5a33.59,33.59,0,0,0,.82-3.81c.42-4,.73-7.94,1.08-11.91.11-1.27.2-2.54.28-3.81a1.28,1.28,0,0,0-.22-.82c-.31.44-.59.89-.92,1.31-1,1.22-1.92,2.44-2.91,3.64A3.86,3.86,0,0,1,51.49,36a8.58,8.58,0,0,1-2.13-4.63A33.27,33.27,0,0,1,49.2,23a22,22,0,0,1,.4-2.27,1,1,0,0,0-.53-1.18,25,25,0,0,1-2.29-1.69c-.37-.3-.63-.76-.21-1.19s.81-.16,1.19.18a13.69,13.69,0,0,0,1.36,1.05c.76.53,1.21.4,1.59-.43.53-1.18,1-2.39,1.58-3.55a31.38,31.38,0,0,1,1.63-2.8,5.13,5.13,0,0,1,.95-1,1.6,1.6,0,0,1,1.8-.39,1.85,1.85,0,0,1,1.22,1.79,7.12,7.12,0,0,1-1.07,4A18.08,18.08,0,0,1,54.94,18a7.11,7.11,0,0,1-2,1.37,2.7,2.7,0,0,0-1.68,2.12,23.71,23.71,0,0,0-.19,9.23,16.6,16.6,0,0,0,1.1,3.46c.91,2,2.46,2.28,3.93.58a44.61,44.61,0,0,0,3.16-4A18.26,18.26,0,0,0,61,27.38a17.3,17.3,0,0,0,.7-2.68.91.91,0,0,1,1-.83.83.83,0,0,1,.87.94c-.12,1.89-.26,3.78-.39,5.66-.15,2.23-.31,4.46-.45,6.69,0,.54,0,1.1,0,1.65ZM74.42,34.1a8.88,8.88,0,0,0,.25,1.53.89.89,0,0,0,1.33.51,2.72,2.72,0,0,0,.86-3.06,1.73,1.73,0,0,0-1-.82c-.26-.06-.73.3-.94.6A4.63,4.63,0,0,0,74.42,34.1ZM52.56,17.72a7.92,7.92,0,0,0,3.68-5.34,2.69,2.69,0,0,0-.15-.86c-.24.15-.59.23-.71.45-.94,1.63-1.83,3.29-2.72,5A2.59,2.59,0,0,0,52.56,17.72Zm17.24.9L69,21.57C69.51,21.39,70.06,19.67,69.8,18.62Z"/><path d="M19.13,28.16c.24-.54.48-1.07.71-1.6,1.08-2.54,2.08-5.1,3.24-7.6s2.53-5.11,3.83-7.65a1.21,1.21,0,0,1,2-.16,3.22,3.22,0,0,1,.52,1.45c.09,1.27.1,2.55.09,3.82,0,2,0,4.08-.09,6.12s-.23,4.16-.35,6.24c0,.22,0,.45,0,.68l.22.07.6-1.2c1.2-2.44,2.29-5,3.65-7.32s3-4.6,4.52-6.92a1.11,1.11,0,0,1,1.55-.41c.57.23.64.72.55,1.27-.28,1.8-.61,3.59-.82,5.4a21.5,21.5,0,0,0-.08,3.31c.13,2.89.19,5.79.49,8.67A11.68,11.68,0,0,0,43,39.13a6.25,6.25,0,0,1,.85,1.07,3.14,3.14,0,0,1,.22.89c-.35,0-.78.09-1-.07a8.93,8.93,0,0,1-3.12-3,15.26,15.26,0,0,1-2.2-7.38c-.13-3.4-.18-6.8-.21-10.21a20.91,20.91,0,0,1,.26-2.47l-.3-.16a8.15,8.15,0,0,0-.91,1c-.91,1.46-1.85,2.91-2.66,4.43a31.22,31.22,0,0,0-1.66,3.8c-.79,2.11-1.61,4.22-2.22,6.39a39.77,39.77,0,0,0-1.62,8.18,1.18,1.18,0,0,1-1.48,1.25A.9.9,0,0,1,26,41.8c.32-3.66.66-7.32.93-11,.24-3.33.42-6.67.58-10,.09-1.91.11-3.82.13-5.73a2.28,2.28,0,0,0-.29-.74c-.21.19-.5.35-.62.59-.9,1.69-1.81,3.38-2.61,5.12-.55,1.18-.91,2.45-1.38,3.68-.68,1.77-1.43,3.51-2,5.31-.72,2.13-1.35,4.3-2,6.47-.46,1.63-.83,3.3-1.25,4.94-.21.83-.86.72-1.46.6s-.76-.5-.69-1.07c.52-4.56,1.05-9.12,1.54-13.69.31-3,.57-5.93.83-8.9.06-.71,0-1.42,0-2.22-.95.13-1.3.9-1.84,1.38-2.21,2-4.33,4.08-6.58,6a10.62,10.62,0,0,1-2.66,1.37,1.67,1.67,0,0,1-1,.11c-.24,0-.45-.29-.68-.44a4.33,4.33,0,0,1,.66-.49,7.1,7.1,0,0,0,1.61-.69c2.16-1.83,4.29-3.69,6.35-5.63,1.15-1.08,2.16-2.31,3.2-3.5a4,4,0,0,0,1.09-2.82c0-.51.13-1,.73-1.07a1.24,1.24,0,0,1,1.42.75,3.47,3.47,0,0,1,.16,1.07,65.53,65.53,0,0,1-1,10.46c-.27,1.9-.37,3.81-.54,5.72a2.47,2.47,0,0,0,.13.7Z"/></svg>